<svg enable-background="new 0 0 512 512" height="35" id="Layer_3" version="1.1" viewBox="0 0 512 512" width="35" xml:space="preserve" xmlns="http://www.w3.org/2000/svg" xmlns:xlink="http://www.w3.org/1999/xlink"><g><path d="M426.825,139.777V64.918H324.408l-63.361-46.311l-64.023,46.311h-82.506v59.68L36.653,180.92l77.864,41.304l16.478,8.741   l0.163-148.735h67.99l71.352,59.01c16.231-17.303,55.338-59.01,55.338-59.01h83.734l0.298,137.924l73.226-39.25L426.825,139.777z    M183.074,133.997l0.311,124.758l77.637,41.183l93.657-50.201l0.049-115.74c-23.742,22.273-93.712,80.612-93.712,80.612   S206.106,155.913,183.074,133.997z"/></g><g><path d="M261.016,312.679L14.626,187.783v287.26h490.498v-287.26L261.016,312.679z M95.932,443.76l119.994-139.854l27.288,13.827   L95.932,443.76z M287.878,313.085l18.109-10.401L424.14,443.76L287.878,313.085z"/></g></svg>
