<svg enable-background="new 0 0 24 24" height="25" viewBox="0 0 24 24" width="25" xmlns="http://www.w3.org/2000/svg"><g id="Layer_1"><path d="m18.25 4h-12.5c-.965 0-1.75.589-1.75 1.312v2.625c0 .724.785 1.313 1.75 1.313h12.5c.965 0 1.75-.589 1.75-1.312v-2.626c0-.723-.785-1.312-1.75-1.312z" fill="#42a5f5"/></g><g id="Layer_3"><g><path d="m21.25 24h-18.5c-1.517 0-2.75-1.233-2.75-2.75v-18.5c0-1.517 1.233-2.75 2.75-2.75h18.5c1.517 0 2.75 1.233 2.75 2.75v18.5c0 1.517-1.233 2.75-2.75 2.75zm-18.5-22.5c-.689 0-1.25.561-1.25 1.25v18.5c0 .689.561 1.25 1.25 1.25h18.5c.689 0 1.25-.561 1.25-1.25v-18.5c0-.689-.561-1.25-1.25-1.25z"/></g><g><path d="m19.25 10h-14.5c-.965 0-1.75-.785-1.75-1.75v-3.5c0-.965.785-1.75 1.75-1.75h14.5c.965 0 1.75.785 1.75 1.75v3.5c0 .965-.785 1.75-1.75 1.75zm-14.5-5.5c-.138 0-.25.112-.25.25v3.5c0 .138.112.25.25.25h14.5c.138 0 .25-.112.25-.25v-3.5c0-.138-.112-.25-.25-.25z"/></g></g></svg>
