<svg version="1.0" xmlns="http://www.w3.org/2000/svg"
 width="200.000000pt" height="200.000000pt" viewBox="0 0 200.000000 200.000000"
 preserveAspectRatio="xMidYMid meet">
<g transform="translate(0.000000,200.000000) scale(0.100000,-0.100000)"
fill="#000000" stroke="none">
<path d="M171 1136 c-28 -16 -71 -83 -71 -111 0 -11 5 -36 10 -56 12 -44 52
-65 105 -56 39 6 42 2 19 -31 -21 -30 -15 -34 23 -20 33 12 53 43 53 81 1 31
23 68 51 83 22 12 17 13 -51 13 -65 0 -73 -1 -57 -13 26 -20 13 -61 -24 -76
-23 -10 -32 -10 -44 0 -33 28 -5 134 42 158 10 5 42 12 72 15 30 4 59 11 65
17 16 16 -164 12 -193 -4z m-13 -72 c-7 -15 -14 -21 -16 -15 -2 7 2 18 8 26
18 22 21 18 8 -11z m122 -130 c0 -8 -5 -12 -10 -9 -6 4 -8 11 -5 16 9 14 15
11 15 -7z"/>
<path d="M1233 1105 c-6 -25 -6 -45 -2 -45 5 0 9 4 9 8 0 5 9 18 20 30 16 17
32 22 68 22 l47 0 -70 -66 c-38 -36 -80 -73 -92 -81 -13 -8 -23 -25 -23 -37 0
-18 6 -21 38 -21 23 0 50 -9 71 -24 70 -50 134 -55 199 -13 33 21 27 35 -8 17
-40 -21 -52 -19 -117 15 -31 17 -66 30 -79 30 -13 0 -24 3 -23 8 0 4 43 45 94
92 52 47 94 91 94 98 1 9 -27 12 -107 12 l-109 0 -10 -45z"/>
<path d="M1612 1092 c-24 -4 -26 -7 -36 -54 -5 -24 -11 -28 -40 -28 -44 0 -48
6 -31 47 13 32 13 34 -1 29 -9 -3 -19 -6 -24 -6 -5 0 -11 -13 -15 -30 -4 -16
-10 -30 -14 -30 -4 0 -7 -15 -7 -32 0 -18 -3 -44 -8 -57 -13 -36 16 -22 34 17
13 27 20 32 53 32 l38 0 -7 -35 c-3 -19 -3 -35 1 -35 22 0 44 24 50 57 4 21
13 57 22 81 8 24 13 45 11 46 -2 1 -13 0 -26 -2z"/>
<path d="M396 1078 c-5 -15 -25 -115 -29 -138 -1 -9 6 -15 16 -15 13 0 24 18
42 70 24 71 21 95 -12 95 -7 0 -15 -6 -17 -12z"/>
<path d="M496 1060 c-57 -50 -54 -109 5 -141 34 -18 95 4 114 41 52 100 -35
173 -119 100z m77 -4 c21 -16 22 -36 3 -81 -16 -38 -44 -46 -66 -20 -14 17 -7
57 16 93 17 25 22 26 47 8z"/>
<path d="M892 1070 c-17 -11 -38 -33 -47 -51 -31 -59 20 -122 80 -99 20 8 23
6 18 -7 -5 -13 -3 -13 14 -4 21 11 57 86 49 100 -6 10 -66 1 -66 -9 0 -5 6
-10 13 -13 20 -6 -12 -37 -40 -37 -31 0 -38 20 -19 63 10 25 23 38 40 42 14 3
37 7 51 10 39 8 29 20 -19 22 -27 1 -55 -6 -74 -17z"/>
<path d="M1051 1066 c-8 -18 -31 -128 -31 -143 0 -10 41 -1 44 10 2 6 12 40
22 75 15 55 16 65 3 73 -22 14 -29 11 -38 -15z"/>
<path d="M1686 1060 c-46 -41 -56 -84 -25 -116 29 -31 53 -38 92 -25 61 20 87
105 47 149 -30 31 -72 28 -114 -8z m80 -15 c32 -49 -21 -128 -62 -94 -20 16
-13 73 12 100 22 25 30 24 50 -6z"/>
<path d="M670 1059 c0 -11 -7 -48 -16 -81 -8 -33 -13 -62 -11 -64 10 -10 38
10 43 31 3 13 15 25 26 28 15 4 23 -2 34 -28 24 -59 85 -89 138 -69 27 10 18
19 -21 19 -31 0 -40 6 -68 45 -30 43 -31 45 -12 55 31 16 44 42 31 63 -8 13
-27 18 -78 20 -62 3 -66 2 -66 -19z m104 -15 c9 -24 -12 -44 -45 -44 -33 0
-33 0 -17 35 13 29 52 34 62 9z"/>
<path d="M1860 914 c-37 -12 -51 -38 -27 -47 13 -5 76 48 66 56 -2 2 -20 -2
-39 -9z"/>
</g>
</svg>
